<svg xmlns="http://www.w3.org/2000/svg" width="1260" height="680" viewBox="0 0 1260 680"><style>.p{fill:#fbfaf7;stroke:#d8d3ca}.s{fill:#f7f5f0;stroke:#d8d3ca}.i{fill:#1d1b18}.m{fill:#77726a}.r{fill:#b52b1d}.g{fill:#59863f}.a{fill:#a66c15}.serif{font-family:Songti SC,STSong,serif}.sans{font-family:PingFang SC,Microsoft YaHei,sans-serif}.h{font:600 21px Songti SC,STSong,serif}.b{font:13px PingFang SC,Microsoft YaHei,sans-serif}.q{font:11px PingFang SC,Microsoft YaHei,sans-serif}</style><rect width="1260" height="680" fill="#f4f1eb"/><text x="42" y="52" class="h i">视频笔记与任务语义</text><rect x="42" y="78" width="1176" height="124" rx="8" class="p"/><text x="68" y="119" class="h i">处理流程已完成</text><text x="68" y="148" class="q g">AI 笔记已生成；5 个地点待确认</text><text x="68" y="171" class="q m">没有后台步骤继续运行，可进入地图确认地点</text><rect x="68" y="184" width="1124" height="3" rx="2" fill="#59863f"/><rect x="42" y="226" width="354" height="398" rx="8" class="p"/><text x="67" y="266" class="h i">运行摘要</text><g class="q"><text x="67" y="310" fill="#77726a">任务状态</text><text x="303" y="310" class="g">处理流程已完成</text><text x="67" y="347" fill="#77726a">最近模型调用</text><text x="294" y="347" class="i">提取地点</text><text x="67" y="384" fill="#77726a">Provider</text><text x="300" y="384" class="i">智谱 GLM</text><text x="67" y="421" fill="#77726a">模型</text><text x="250" y="421" class="i">glm-5-turbo</text><text x="67" y="458" fill="#77726a">当前步骤</text><text x="300" y="458" class="m">清理缓存（不调用模型）</text></g><rect x="422" y="226" width="796" height="398" rx="8" class="p"/><rect x="450" y="255" width="170" height="108" rx="6" class="s"/><path d="M505 305l25-15 25 15v30l-25 15-25-15z" fill="none" stroke="#77726a"/><text x="472" y="386" class="q m">封面加载失败时显示占位</text><text x="648" y="270" class="q r">来源视频 · 9:39</text><text x="648" y="306" class="h i">九月旅行目的地建议</text><line x1="450" y1="410" x2="1188" y2="410" stroke="#e8e3db"/><text x="450" y="450" class="h i">如何选择目的地</text><text x="450" y="480" class="b i">视频建议，在九月份选择旅游目的地时，应重点关注以下几个标准：</text><text x="470" y="517" class="b i">• <tspan font-weight="600">观赏窗口期</tspan>：秋景窗口通常只有 20 天左右。</text><text x="470" y="550" class="b i">• <tspan font-weight="600">成本</tspan>：旺季住宿与交通应提前规划。</text><text x="450" y="590" class="q m">安全 Markdown：标题、列表与粗体呈现；不执行原始 HTML。</text></svg>
